<?xml version="1.0" encoding="utf-8"?>
<!-- Generator: Adobe Illustrator 18.0.0, SVG Export Plug-In . SVG Version: 6.00 Build 0)  -->
<!DOCTYPE svg PUBLIC "-//W3C//DTD SVG 1.1//EN" "http://www.w3.org/Graphics/SVG/1.1/DTD/svg11.dtd">
<svg version="1.1" id="Layer_1" xmlns="http://www.w3.org/2000/svg" xmlns:xlink="http://www.w3.org/1999/xlink" x="0px" y="0px"
	 viewBox="182.7 0 594.8 560" enable-background="new 182.7 0 594.8 560" xml:space="preserve">
<g>
	<path fill="#FFEB73" d="M777.3,0H449.1c-13.1,0-25.5,1.2-34.2,10.4L195.8,238.8c-17.4,18.3-17.4,45.8,0,63.8l219.1,236.5
		c9,9.3,21.2,20.9,34.2,20.9h328.5V0H777.3z"/>
	<path fill="#FCD532" d="M716.3,60.9v438.1H455.8l-208-222L452.6,60.9H716.3 M777.3,0H449.1c-13.1,0-25.5,1.2-34.2,10.4L195.8,238.8
		c-17.4,18.3-17.4,45.8,0,63.8l219.1,236.5c9,9.3,21.2,20.9,34.2,20.9h328.5V0H777.3z"/>
</g>
</svg>
